<?xml version="1.0" encoding="UTF-8"?><svg id="Layer_1" xmlns="http://www.w3.org/2000/svg" xmlns:xlink="http://www.w3.org/1999/xlink" viewBox="0 0 662.26 196.73"><defs><style>.cls-1,.cls-2,.cls-3{fill:none;}.cls-4,.cls-2{stroke-width:17px;}.cls-4,.cls-2,.cls-3{stroke:#342b32;}.cls-4,.cls-5{fill:#fafbff;}.cls-6{clip-path:url(#clippath);}.cls-7{fill:#342b32;}.cls-8{clip-path:url(#clippath-1);}.cls-9{clip-path:url(#clippath-4);}.cls-10{clip-path:url(#clippath-3);}.cls-11{clip-path:url(#clippath-2);}.cls-12{clip-path:url(#clippath-7);}.cls-13{clip-path:url(#clippath-8);}.cls-14{clip-path:url(#clippath-6);}.cls-15{clip-path:url(#clippath-5);}.cls-3{stroke-width:21px;}</style><clipPath id="clippath"><rect class="cls-1" x="466.09" y=".56" width="196.17" height="196.17"/></clipPath><clipPath id="clippath-1"><path class="cls-1" d="m501.96.56h124.44c19.81,0,35.86,16.07,35.86,35.86v124.46c0,19.79-16.05,35.82-35.86,35.82h-124.44c-19.81,0-35.86-16.05-35.86-35.82V36.43c0-19.79,16.05-35.86,35.86-35.86"/></clipPath><clipPath id="clippath-2"><rect class="cls-1" x="496.76" y="26.04" width="143.17" height="144.08"/></clipPath><clipPath id="clippath-3"><rect class="cls-1" x="235.71" width="196.17" height="196.17"/></clipPath><clipPath id="clippath-4"><path class="cls-1" d="m271.57,0h124.46c19.79,0,35.82,16.07,35.82,35.86v124.46c0,19.79-16.05,35.82-35.82,35.82h-124.46c-19.79,0-35.86-16.05-35.86-35.82V35.86c0-19.79,16.07-35.86,35.86-35.86"/></clipPath><clipPath id="clippath-5"><rect class="cls-2" x="296.42" y="40.14" width="94.39" height="94.39"/></clipPath><clipPath id="clippath-6"><rect class="cls-1" y=".56" width="196.17" height="196.17"/></clipPath><clipPath id="clippath-7"><path class="cls-1" d="m35.86.56h124.46c19.79,0,35.82,16.07,35.82,35.86v124.46c0,19.79-16.05,35.82-35.82,35.82H35.86c-19.79,0-35.86-16.05-35.86-35.82V36.43C0,16.63,16.07.56,35.86.56"/></clipPath><clipPath id="clippath-8"><rect class="cls-4" x="270.96" y="67.56" width="92.21" height="92.21"/></clipPath></defs><g class="cls-6"><g class="cls-8"><path class="cls-5" d="m466.09.56h196.17v196.17h-196.17V.56Z"/></g></g><g class="cls-11"><path class="cls-7" d="m633.71,150.55l-50.94-50.94,50.94-50.86-17.63-17.47-50.9,50.9-50.86-50.9-17.51,17.51,50.96,51-50.96,50.9,17.51,17.51,51.02-51,50.9,51,17.47-17.63v-.02Z"/></g><g class="cls-10"><g class="cls-9"><path class="cls-5" d="m235.71,0h196.17v196.17h-196.17s0-196.17,0-196.17Z"/></g></g><g class="cls-15"><path class="cls-2" d="m296.42,40.14h94.39v94.39h-94.39V40.14"/></g><rect class="cls-2" x="296.42" y="40.14" width="94.39" height="94.39"/><g class="cls-14"><g class="cls-12"><path class="cls-5" d="m0,.56h196.17v196.17H0V.56Z"/></g></g><path class="cls-3" d="m32.87,110.58h131.48"/><rect class="cls-5" x="270.96" y="67.56" width="92.21" height="92.21"/><g class="cls-13"><path class="cls-4" d="m270.96,67.56h92.21v92.21h-92.21v-92.21"/></g><rect class="cls-2" x="270.96" y="67.56" width="92.21" height="92.21"/></svg>