<svg xmlns="http://www.w3.org/2000/svg" xmlns:xlink="http://www.w3.org/1999/xlink" zoomAndPan="magnify" preserveAspectRatio="xMidYMid meet" version="1.0" width="172.796875" height="172.796875" viewBox="111.6015625 111.6015625 172.796875 172.796875"><defs><clipPath id="ffbd978983"><path d="M 111.601562 111.601562 L 284.398438 111.601562 L 284.398438 284.398438 L 111.601562 284.398438 Z M 111.601562 111.601562 " clip-rule="nonzero"/></clipPath><clipPath id="a095da4158"><path d="M 198 111.601562 C 150.28125 111.601562 111.601562 150.28125 111.601562 198 C 111.601562 245.71875 150.28125 284.398438 198 284.398438 C 245.71875 284.398438 284.398438 245.71875 284.398438 198 C 284.398438 150.28125 245.71875 111.601562 198 111.601562 " clip-rule="nonzero"/></clipPath></defs><g clip-path="url(#ffbd978983)"><g clip-path="url(#a095da4158)"><path fill="#ffdef6" d="M 111.601562 111.601562 L 284.398438 111.601562 L 284.398438 284.398438 L 111.601562 284.398438 Z M 111.601562 111.601562 " fill-opacity="1" fill-rule="nonzero"/></g></g><path fill="#e60000" d="M 171.296875 166.496094 L 145.277344 198.160156 L 171.296875 229.828125 L 177.449219 219.707031 L 159.917969 198.160156 L 177.449219 176.617188 Z M 171.296875 166.496094 " fill-opacity="1" fill-rule="nonzero"/><path fill="#e60000" d="M 187.601562 229.074219 L 199.023438 229.074219 L 217.175781 167.082031 L 205.753906 167.082031 Z M 187.601562 229.074219 " fill-opacity="1" fill-rule="nonzero"/><path fill="#e60000" d="M 224.582031 166.496094 L 218.429688 176.617188 L 235.964844 198.160156 L 218.429688 219.707031 L 224.582031 229.828125 L 250.605469 198.160156 Z M 224.582031 166.496094 " fill-opacity="1" fill-rule="nonzero"/></svg>
