<svg xmlns="http://www.w3.org/2000/svg" xmlns:xlink="http://www.w3.org/1999/xlink" width="1182" zoomAndPan="magnify" viewBox="0 0 886.5 428.250001" height="571" preserveAspectRatio="xMidYMid meet" version="1.0"><defs><clipPath id="3a73ffeece"><path d="M 221 179 L 291.789062 179 L 291.789062 327 L 221 327 Z M 221 179 " clip-rule="nonzero"/></clipPath><clipPath id="e6b37efc46"><path d="M 76.046875 75.453125 L 233 75.453125 L 233 249 L 76.046875 249 Z M 76.046875 75.453125 " clip-rule="nonzero"/></clipPath><clipPath id="4a1e975b88"><path d="M 100 253 L 195 253 L 195 345.882812 L 100 345.882812 Z M 100 253 " clip-rule="nonzero"/></clipPath><clipPath id="c85b7a3303"><path d="M 258.8125 129 L 414.628906 129 L 414.628906 352.964844 L 258.8125 352.964844 Z M 258.8125 129 " clip-rule="nonzero"/></clipPath><clipPath id="7babbd912d"><path d="M 597.347656 120.535156 L 810.097656 120.535156 L 810.097656 333.28125 L 597.347656 333.28125 Z M 597.347656 120.535156 " clip-rule="nonzero"/></clipPath><clipPath id="2f3f8f606c"><path d="M 479.191406 91 L 689.691406 91 L 689.691406 150.367188 L 479.191406 150.367188 Z M 479.191406 91 " clip-rule="nonzero"/></clipPath><clipPath id="ee50eb78ca"><path d="M 423.472656 120.535156 L 597.265625 120.535156 L 597.265625 352.757812 L 423.472656 352.757812 Z M 423.472656 120.535156 " clip-rule="nonzero"/></clipPath></defs><g clip-path="url(#3a73ffeece)"><path fill="#e60000" d="M 257.039062 201.617188 L 257.039062 179.023438 L 256.34375 179.023438 L 256.34375 201.617188 L 244.96875 201.617188 L 221.617188 224.976562 L 221.617188 261.566406 L 256.34375 261.566406 L 256.34375 326.011719 L 257.039062 326.011719 L 257.039062 261.566406 L 268.410156 261.566406 L 291.761719 238.203125 L 291.761719 201.617188 Z M 245.253906 202.308594 L 256.335938 202.308594 L 256.335938 214.703125 L 257.03125 214.703125 L 257.03125 202.308594 L 290.566406 202.308594 L 268.113281 224.777344 L 222.796875 224.777344 Z M 222.3125 225.472656 L 267.917969 225.472656 L 267.917969 260.875 L 222.3125 260.875 Z M 222.3125 225.472656 " fill-opacity="1" fill-rule="nonzero"/></g><g clip-path="url(#e6b37efc46)"><path fill="#e60000" d="M 232.332031 190.527344 L 232.332031 104.964844 L 200.878906 104.964844 L 200.878906 75.734375 L 185.355469 75.734375 L 176.484375 84.609375 L 176.484375 104.964844 L 161.066406 104.964844 L 137.714844 128.328125 L 137.714844 201.617188 L 99.894531 201.617188 L 99.894531 166.519531 L 99.203125 166.519531 L 99.203125 201.816406 L 76.046875 224.980469 L 76.046875 242.773438 L 99.195312 242.773438 L 99.195312 248.214844 L 99.890625 248.214844 L 99.890625 242.773438 L 179.914062 242.773438 L 203.265625 219.410156 L 203.265625 213.890625 L 208.976562 213.890625 Z M 138.410156 213.195312 L 138.410156 128.820312 L 176.484375 128.820312 L 176.484375 175.226562 L 186.6875 175.226562 L 186.6875 197.742188 L 187.378906 197.742188 L 187.378906 175.226562 L 192 175.226562 L 192 175.273438 L 200.53125 166.742188 L 200.53125 166.707031 L 200.878906 166.359375 L 200.878906 128.820312 L 208.488281 128.820312 L 208.488281 213.195312 Z M 177.179688 85.09375 L 191.515625 85.09375 L 191.515625 174.53125 L 177.179688 174.53125 Z M 231.148438 105.660156 L 208.691406 128.125 L 200.871094 128.125 L 200.871094 105.660156 Z M 185.636719 76.429688 L 199.691406 76.429688 L 191.722656 84.398438 L 177.671875 84.398438 Z M 161.351562 105.660156 L 176.484375 105.660156 L 176.484375 128.125 L 138.894531 128.125 Z M 99.890625 213.542969 L 99.890625 202.308594 L 137.707031 202.308594 L 137.707031 213.890625 L 190.503906 213.890625 L 179.621094 224.777344 L 77.230469 224.777344 L 99.195312 202.804688 L 99.195312 213.542969 Z M 76.738281 225.472656 L 179.429688 225.472656 L 179.429688 242.078125 L 76.738281 242.078125 Z M 76.738281 225.472656 " fill-opacity="1" fill-rule="nonzero"/></g><g clip-path="url(#4a1e975b88)"><path fill="#e60000" d="M 194.875 253.234375 L 123.609375 253.234375 L 100.257812 276.597656 L 100.257812 322.1875 L 132.925781 322.1875 L 156.328125 345.597656 L 171.523438 345.597656 L 195 322.109375 L 195 303.105469 L 194.875 298.675781 Z M 123.890625 253.929688 L 193.6875 253.929688 L 171.234375 276.398438 L 101.4375 276.398438 Z M 133.210938 321.492188 L 100.949219 321.492188 L 100.949219 277.089844 L 171.039062 277.089844 L 171.039062 344.910156 L 156.609375 344.910156 Z M 133.210938 321.492188 " fill-opacity="1" fill-rule="nonzero"/></g><path fill="#e60000" d="M 255.648438 146.398438 L 257.730469 146.398438 L 257.730469 171.011719 L 255.648438 171.011719 Z M 255.648438 146.398438 " fill-opacity="1" fill-rule="nonzero"/><path fill="#e60000" d="M 99.1875 160.171875 L 99.882812 160.171875 L 99.890625 156.429688 L 103.628906 156.4375 L 103.628906 155.746094 L 99.890625 155.738281 L 99.890625 152.003906 L 99.195312 152.003906 L 99.195312 155.738281 L 95.453125 155.738281 L 95.453125 156.429688 L 99.195312 156.429688 Z M 99.1875 160.171875 " fill-opacity="1" fill-rule="nonzero"/><path fill="#e60000" d="M 256.34375 332.558594 L 257.039062 332.558594 L 257.039062 336.675781 L 256.34375 336.675781 Z M 256.34375 332.558594 " fill-opacity="1" fill-rule="nonzero"/><g clip-path="url(#c85b7a3303)"><path fill="#e60000" d="M 341.75 152.90625 L 340.261719 152.90625 L 340.261719 129.195312 L 341.75 129.195312 Z M 314.351562 230.71875 L 314.847656 230.71875 L 314.847656 227.617188 L 317.9375 227.617188 L 317.9375 227.121094 L 314.847656 227.121094 L 314.847656 224.023438 L 314.351562 224.023438 L 314.351562 227.121094 L 311.261719 227.121094 L 311.261719 227.617188 L 314.347656 227.617188 Z M 367.855469 156.058594 L 368.351562 156.058594 L 368.351562 152.953125 L 371.441406 152.953125 L 371.441406 152.457031 L 368.351562 152.457031 L 368.351562 149.359375 L 367.855469 149.359375 L 367.855469 152.457031 L 364.761719 152.457031 L 364.761719 152.953125 L 367.847656 152.953125 Z M 414.648438 224.0625 C 414.648438 230.898438 412.167969 237.484375 407.664062 242.609375 L 405.871094 244.542969 L 332.285156 318.398438 C 331.109375 323.917969 328.542969 329.078125 324.765625 333.371094 L 322.640625 335.660156 L 314.621094 343.710938 L 314.570312 343.664062 C 308.40625 349.507812 300.390625 352.726562 291.878906 352.726562 C 273.648438 352.722656 258.8125 337.835938 258.8125 319.539062 C 258.8125 310.671875 262.25 302.34375 268.5 296.074219 C 268.730469 295.839844 268.976562 295.617188 269.210938 295.390625 L 275.855469 288.726562 L 278.523438 286.164062 C 282.53125 282.738281 287.277344 280.347656 292.328125 279.144531 L 314.351562 257.042969 L 314.351562 234.738281 L 314.847656 234.738281 L 314.847656 256.542969 L 326 245.351562 L 326 198.746094 C 326 198.746094 326.308594 198.96875 326.9375 199.296875 C 324.042969 197.722656 322.277344 195.65625 322.277344 193.398438 L 322.277344 185.382812 L 322.324219 185.382812 C 322.292969 185.183594 322.277344 184.984375 322.277344 184.785156 C 322.277344 179.882812 330.5625 175.894531 340.757812 175.871094 L 340.757812 156.921875 L 341.253906 156.921875 L 341.253906 175.882812 C 351.296875 175.984375 359.402344 179.941406 359.402344 184.792969 L 359.402344 193.402344 C 359.402344 195.40625 358.015625 197.261719 355.679688 198.753906 L 355.679688 215.574219 L 366.339844 204.878906 L 367.863281 203.410156 L 367.863281 160.535156 L 368.359375 160.535156 L 368.359375 202.933594 L 368.585938 202.714844 C 373.640625 198.394531 380.070312 196.019531 386.710938 196.019531 C 402.113281 196.019531 414.648438 208.597656 414.648438 224.0625 Z M 342.207031 189.351562 C 342.316406 189.34375 342.417969 189.339844 342.527344 189.335938 C 342.625 189.332031 342.726562 189.324219 342.828125 189.316406 C 346.222656 189.085938 349.179688 188.296875 350.984375 187.207031 C 348.769531 185.863281 344.941406 185.039062 340.84375 185.039062 C 336.746094 185.039062 332.910156 185.863281 330.695312 187.207031 C 332.5 188.296875 335.457031 189.09375 338.851562 189.316406 C 338.949219 189.320312 339.050781 189.332031 339.152344 189.335938 C 339.257812 189.339844 339.367188 189.34375 339.476562 189.351562 C 339.621094 189.355469 339.757812 189.359375 339.902344 189.367188 C 339.980469 189.371094 340.066406 189.371094 340.148438 189.371094 C 340.378906 189.375 340.609375 189.378906 340.84375 189.378906 C 341.074219 189.378906 341.304688 189.375 341.535156 189.371094 C 341.621094 189.371094 341.699219 189.367188 341.785156 189.367188 C 341.921875 189.359375 342.0625 189.355469 342.207031 189.351562 Z M 322.773438 184.785156 C 322.773438 189.425781 330.878906 193.203125 340.839844 193.203125 C 350.796875 193.203125 358.902344 189.429688 358.902344 184.785156 C 358.902344 180.210938 351.019531 176.476562 341.25 176.375 L 341.25 179.699219 C 348.0625 179.785156 353.339844 181.988281 353.339844 184.785156 C 353.339844 185.667969 352.8125 186.488281 351.886719 187.203125 L 351.890625 187.203125 L 351.835938 187.238281 C 349.871094 188.71875 346.144531 189.738281 341.71875 189.859375 C 341.691406 189.859375 341.65625 189.859375 341.625 189.863281 C 341.367188 189.867188 341.105469 189.871094 340.839844 189.871094 C 340.574219 189.871094 340.3125 189.867188 340.050781 189.863281 C 340.019531 189.863281 339.984375 189.863281 339.957031 189.859375 C 335.53125 189.738281 331.804688 188.71875 329.839844 187.238281 L 329.785156 187.203125 L 329.789062 187.203125 C 328.859375 186.488281 328.339844 185.667969 328.339844 184.785156 C 328.339844 181.941406 333.789062 179.714844 340.757812 179.695312 L 340.757812 176.367188 C 330.835938 176.394531 322.773438 180.160156 322.773438 184.785156 Z M 340.839844 201.816406 C 350.796875 201.816406 358.902344 198.042969 358.902344 193.398438 L 358.902344 186.824219 C 356.972656 190.761719 349.613281 193.703125 340.839844 193.703125 C 332.0625 193.703125 324.695312 190.761719 322.773438 186.824219 L 322.773438 193.398438 C 322.773438 198.042969 330.878906 201.816406 340.839844 201.816406 Z M 314.90625 342.652344 C 321.058594 336.476562 324.445312 328.273438 324.445312 319.542969 C 324.445312 301.519531 309.832031 286.855469 291.875 286.855469 C 283.175781 286.855469 274.996094 290.257812 268.847656 296.425781 C 262.699219 302.601562 259.308594 310.804688 259.308594 319.539062 C 259.308594 337.5625 273.917969 352.222656 291.878906 352.222656 C 300.578125 352.222656 308.753906 348.828125 314.90625 342.652344 Z M 332.535156 311.421875 C 332.535156 293.398438 317.925781 278.734375 299.964844 278.734375 C 292.230469 278.734375 284.734375 281.503906 278.855469 286.53125 L 276.199219 289.078125 L 272.984375 292.304688 C 278.488281 288.441406 285.015625 286.359375 291.875 286.359375 C 310.105469 286.359375 324.941406 301.246094 324.941406 319.542969 C 324.941406 326.566406 322.773438 333.253906 318.765625 338.847656 L 322.277344 335.320312 L 324.394531 333.035156 C 329.640625 327.070312 332.535156 319.394531 332.535156 311.421875 Z M 413.636719 218.761719 C 411.171875 206.097656 400.03125 196.515625 386.707031 196.515625 C 380.1875 196.515625 373.867188 198.847656 368.914062 203.082031 L 368.355469 203.621094 L 368.355469 220.417969 L 367.859375 220.417969 L 367.859375 204.097656 L 366.679688 205.230469 L 355.675781 216.273438 L 355.675781 249.160156 C 355.675781 253.105469 349.023438 256.316406 340.839844 256.316406 C 332.660156 256.316406 326 253.109375 326 249.160156 L 326 246.054688 L 314.847656 257.246094 L 314.847656 271.84375 L 314.351562 271.84375 L 314.351562 257.742188 L 293.226562 278.945312 C 295.425781 278.480469 297.679688 278.242188 299.960938 278.242188 C 314.660156 278.242188 327.144531 287.925781 331.429688 301.265625 Z M 315.214844 319.542969 L 315.214844 319.789062 L 315.210938 319.789062 C 315.144531 325.953125 312.730469 331.738281 308.382812 336.101562 C 303.972656 340.523438 298.117188 342.957031 291.882812 342.957031 C 279.015625 342.957031 268.546875 332.449219 268.546875 319.539062 C 268.546875 313.28125 270.976562 307.398438 275.382812 302.980469 C 279.730469 298.613281 285.492188 296.191406 291.632812 296.128906 L 291.632812 296.125 L 291.878906 296.125 C 297.910156 296.125 303.414062 298.429688 307.558594 302.214844 C 311.058594 305.40625 313.578125 309.644531 314.644531 314.429688 C 314.675781 314.566406 314.707031 314.695312 314.738281 314.828125 C 314.742188 314.84375 314.742188 314.863281 314.75 314.878906 C 315.050781 316.386719 315.214844 317.945312 315.214844 319.542969 Z M 314.707031 319.292969 C 314.707031 319.128906 314.703125 318.964844 314.695312 318.800781 C 314.6875 318.617188 314.683594 318.433594 314.675781 318.253906 C 314.664062 318.050781 314.644531 317.847656 314.628906 317.644531 C 314.613281 317.464844 314.601562 317.28125 314.585938 317.101562 C 314.566406 316.898438 314.535156 316.699219 314.511719 316.496094 C 314.484375 316.316406 314.464844 316.136719 314.4375 315.960938 C 314.40625 315.761719 314.367188 315.566406 314.332031 315.367188 C 314.300781 315.191406 314.273438 315.015625 314.234375 314.84375 C 314.195312 314.644531 314.144531 314.449219 314.097656 314.257812 C 314.058594 314.085938 314.019531 313.914062 313.976562 313.746094 C 313.925781 313.550781 313.867188 313.355469 313.8125 313.164062 C 313.761719 313 313.71875 312.828125 313.667969 312.664062 C 313.609375 312.472656 313.539062 312.28125 313.476562 312.09375 C 313.421875 311.933594 313.367188 311.769531 313.308594 311.613281 C 313.238281 311.421875 313.15625 311.234375 313.082031 311.042969 C 313.023438 310.890625 312.964844 310.730469 312.894531 310.582031 C 312.816406 310.394531 312.726562 310.203125 312.644531 310.019531 C 312.574219 309.871094 312.507812 309.722656 312.441406 309.578125 C 312.351562 309.390625 312.25 309.207031 312.15625 309.019531 C 312.082031 308.882812 312.011719 308.738281 311.9375 308.597656 C 311.835938 308.410156 311.726562 308.226562 311.617188 308.042969 C 311.542969 307.914062 311.46875 307.777344 311.390625 307.648438 C 311.269531 307.453125 311.148438 307.265625 311.023438 307.078125 C 310.949219 306.960938 310.875 306.84375 310.792969 306.722656 C 310.660156 306.523438 310.515625 306.328125 310.375 306.132812 C 310.300781 306.03125 310.234375 305.929688 310.160156 305.832031 C 310.003906 305.621094 309.832031 305.410156 309.671875 305.207031 C 309.609375 305.132812 309.550781 305.054688 309.488281 304.972656 C 309.277344 304.71875 309.0625 304.472656 308.84375 304.226562 C 308.816406 304.203125 308.796875 304.171875 308.773438 304.148438 C 308.28125 303.605469 307.769531 303.089844 307.222656 302.59375 C 307.21875 302.585938 307.207031 302.582031 307.203125 302.570312 C 306.941406 302.332031 306.671875 302.101562 306.398438 301.875 C 306.339844 301.828125 306.28125 301.78125 306.222656 301.738281 C 306 301.554688 305.769531 301.375 305.542969 301.199219 C 305.457031 301.136719 305.371094 301.074219 305.28125 301.011719 C 305.074219 300.855469 304.863281 300.707031 304.652344 300.5625 C 304.550781 300.492188 304.449219 300.433594 304.34375 300.363281 C 304.140625 300.230469 303.9375 300.097656 303.730469 299.964844 C 303.617188 299.898438 303.5 299.832031 303.386719 299.769531 C 303.183594 299.648438 302.988281 299.527344 302.777344 299.414062 C 302.65625 299.34375 302.53125 299.285156 302.402344 299.222656 C 302.203125 299.117188 302 299.011719 301.796875 298.914062 C 301.664062 298.847656 301.53125 298.789062 301.390625 298.730469 C 301.191406 298.632812 300.996094 298.542969 300.792969 298.457031 C 300.652344 298.394531 300.503906 298.339844 300.367188 298.28125 C 300.167969 298.203125 299.96875 298.117188 299.765625 298.042969 C 299.617188 297.988281 299.46875 297.9375 299.316406 297.886719 C 299.117188 297.820312 298.914062 297.75 298.710938 297.683594 C 298.558594 297.636719 298.398438 297.59375 298.242188 297.546875 C 298.039062 297.484375 297.839844 297.425781 297.636719 297.371094 C 297.472656 297.328125 297.308594 297.292969 297.144531 297.253906 C 296.949219 297.203125 296.746094 297.152344 296.542969 297.113281 C 296.371094 297.078125 296.199219 297.046875 296.03125 297.019531 C 295.832031 296.984375 295.628906 296.945312 295.429688 296.910156 C 295.257812 296.878906 295.078125 296.859375 294.902344 296.835938 C 294.703125 296.808594 294.5 296.78125 294.300781 296.757812 C 294.117188 296.738281 293.933594 296.730469 293.75 296.710938 C 293.554688 296.695312 293.355469 296.675781 293.152344 296.664062 C 292.964844 296.65625 292.777344 296.648438 292.582031 296.644531 C 292.425781 296.640625 292.269531 296.636719 292.113281 296.636719 C 292.265625 309.066406 302.316406 319.15625 314.707031 319.292969 Z M 314.707031 319.292969 " fill-opacity="1" fill-rule="nonzero"/></g><g clip-path="url(#7babbd912d)"><path fill="#e60000" d="M 810.054688 247.90625 L 810.054688 224.015625 L 810.097656 223.976562 L 810.054688 223.9375 L 810.054688 223.371094 L 775.789062 223.371094 L 775.789062 189.101562 L 741.519531 189.101562 L 741.519531 154.832031 L 707.25 154.832031 L 707.25 120.5625 L 672.578125 120.5625 L 597.347656 195.789062 L 597.347656 230.292969 L 700.320312 333.265625 L 734.824219 333.265625 L 810.050781 258.035156 L 810.050781 248.503906 L 810.066406 247.886719 Z M 809.492188 248.472656 L 734.992188 322.96875 L 734.992188 299 L 735.03125 299.039062 L 809.492188 224.582031 Z M 775.222656 214.382812 L 700.933594 288.667969 L 700.933594 264.515625 L 775.222656 190.234375 Z M 740.953125 180.289062 L 666.492188 254.746094 L 666.492188 230.335938 L 740.953125 155.878906 Z M 706.683594 146.195312 L 632.574219 220.304688 L 632.574219 195.632812 L 706.683594 121.53125 Z M 809.335938 223.9375 L 734.714844 298.558594 L 701.203125 298.558594 L 775.789062 223.976562 L 775.746094 223.9375 Z M 774.984375 189.667969 L 700.40625 264.246094 L 666.894531 264.246094 L 741.472656 189.667969 Z M 740.636719 155.398438 L 666.097656 229.9375 L 632.863281 229.9375 L 632.839844 229.773438 L 707.214844 155.398438 Z M 672.816406 121.128906 L 706.285156 121.128906 L 631.78125 195.625 L 598.316406 195.625 Z M 672.816406 121.128906 " fill-opacity="1" fill-rule="nonzero"/></g><g clip-path="url(#2f3f8f606c)"><path fill="#e60000" d="M 676.972656 124.652344 C 667.664062 121.929688 656.941406 130.625 648.523438 125.808594 C 643.503906 122.933594 641.816406 116.398438 637.335938 112.746094 C 626.804688 104.152344 609.074219 116.117188 597.914062 108.347656 C 592.65625 104.6875 590.617188 97.601562 585.300781 94.023438 C 577.742188 88.9375 567.375 93.160156 560.234375 98.824219 C 553.097656 104.492188 546.503906 111.816406 537.539062 113.464844 C 529.238281 114.992188 526.585938 111.757812 518.148438 111.464844 C 509.695312 111.167969 504.132812 114.542969 500.21875 119.203125 L 493.015625 126.035156 L 493.027344 126.035156 C 487.238281 130.953125 484.320312 138.542969 482.097656 144.335938 C 481.246094 146.554688 480.515625 148.464844 479.738281 149.988281 L 479.5625 150.335938 L 679.605469 150.335938 L 679.640625 150.339844 L 689.328125 140.679688 C 687.394531 134.070312 683.597656 126.585938 676.972656 124.652344 Z M 480.34375 149.855469 C 481.066406 148.371094 481.757812 146.566406 482.550781 144.503906 C 486.359375 134.566406 491.582031 120.96875 508.261719 121.546875 C 511.742188 121.667969 514.183594 122.28125 516.550781 122.878906 C 519.90625 123.726562 522.800781 124.449219 527.703125 123.550781 C 534.796875 122.25 540.457031 117.390625 545.929688 112.695312 C 547.425781 111.410156 548.96875 110.089844 550.507812 108.863281 C 557.582031 103.25 567.804688 99.042969 575.289062 104.074219 C 577.933594 105.855469 579.804688 108.582031 581.609375 111.222656 C 583.40625 113.847656 585.261719 116.558594 587.902344 118.394531 C 593.453125 122.253906 600.644531 121.300781 607.601562 120.382812 C 615.019531 119.398438 622.019531 118.46875 627.304688 122.785156 C 629.289062 124.40625 630.746094 126.644531 632.160156 128.8125 C 633.90625 131.488281 635.714844 134.261719 638.523438 135.875 C 643.140625 138.519531 648.527344 137.144531 653.738281 135.8125 C 658.1875 134.671875 662.796875 133.5 667.027344 134.738281 C 673.699219 136.691406 677.195312 143.96875 678.960938 149.855469 Z M 480.34375 149.855469 " fill-opacity="1" fill-rule="nonzero"/></g><g clip-path="url(#ee50eb78ca)"><path fill="#e60000" d="M 534.675781 120.886719 L 504.25 151.339844 L 504.25 196.5625 L 452.449219 248.386719 C 452.410156 248.425781 452.367188 248.457031 452.324219 248.496094 C 452.285156 248.53125 452.253906 248.578125 452.214844 248.613281 L 451.976562 248.851562 L 452 248.851562 C 450.144531 250.875 449.117188 253.480469 449.117188 256.246094 C 449.117188 259.171875 450.277344 261.824219 452.152344 263.796875 L 433.054688 282.90625 L 433.4375 283.289062 L 452.535156 264.179688 C 454.5 266.050781 457.152344 267.214844 460.078125 267.214844 C 462.929688 267.214844 465.53125 266.105469 467.480469 264.308594 L 467.480469 264.367188 L 473.777344 258.066406 L 473.777344 289.324219 L 455.203125 307.894531 C 455.167969 307.933594 455.117188 307.964844 455.082031 308.007812 C 455.042969 308.046875 455.011719 308.089844 454.972656 308.128906 L 454.734375 308.367188 L 454.757812 308.367188 C 452.902344 310.390625 451.875 312.992188 451.875 315.757812 C 451.875 318.6875 453.035156 321.335938 454.910156 323.308594 L 435.8125 342.421875 L 436.195312 342.804688 L 455.292969 323.691406 C 457.253906 325.566406 459.910156 326.726562 462.835938 326.726562 C 465.609375 326.726562 468.214844 325.695312 470.238281 323.828125 L 470.238281 323.882812 L 487.515625 306.589844 L 536.382812 306.589844 L 566.652344 276.292969 L 566.808594 276.136719 L 597.289062 245.628906 L 597.289062 120.886719 Z M 566.261719 275.75 L 536.535156 275.75 L 536.535156 245.785156 L 566.261719 245.785156 Z M 535.992188 244.351562 L 513.128906 267.242188 C 511.292969 264.914062 508.539062 263.351562 505.421875 263.097656 L 505.421875 244.316406 L 535.992188 244.316406 Z M 513.457031 267.671875 L 535.992188 245.113281 L 535.992188 275.75 L 515.34375 275.75 C 515.4375 275.179688 515.492188 274.601562 515.492188 274.011719 C 515.492188 271.652344 514.730469 269.464844 513.457031 267.671875 Z M 536.535156 245.242188 L 536.535156 244.574219 L 566.261719 214.816406 L 566.261719 245.242188 Z M 536.535156 243.8125 L 536.535156 243.773438 L 505.421875 243.773438 L 505.421875 226.390625 L 517.785156 214.019531 L 566.257812 214.019531 L 566.257812 214.054688 Z M 504.882812 226.929688 L 504.882812 243.773438 L 488.054688 243.773438 Z M 567.011719 183.699219 L 596.359375 183.699219 L 567.011719 213.074219 Z M 566.472656 213.457031 L 518.34375 213.457031 L 544.730469 187.046875 L 545.425781 186.296875 C 546.117188 185.507812 546.683594 184.632812 547.121094 183.699219 L 566.46875 183.699219 L 566.46875 213.457031 Z M 547.355469 183.160156 C 547.878906 181.863281 548.167969 180.46875 548.167969 179.042969 C 548.167969 173 543.25 168.082031 537.214844 168.082031 C 536.777344 168.082031 536.339844 168.117188 535.90625 168.167969 L 535.90625 151.722656 L 566.480469 151.722656 L 566.480469 183.160156 Z M 566.628906 151.183594 L 535.902344 151.183594 L 535.902344 121.425781 L 596.359375 121.425781 Z M 534.902344 121.425781 L 535.363281 121.425781 L 535.363281 151.183594 L 505.175781 151.183594 Z M 504.792969 151.722656 L 535.363281 151.722656 L 535.363281 168.242188 C 533.429688 168.574219 531.613281 169.414062 530.097656 170.707031 L 504.792969 196.023438 Z M 460.070312 266.679688 C 457.296875 266.679688 454.777344 265.582031 452.910156 263.804688 L 460.265625 256.449219 L 459.882812 256.066406 L 452.527344 263.421875 C 450.753906 261.554688 449.660156 259.03125 449.660156 256.253906 C 449.660156 253.46875 450.742188 250.855469 452.707031 248.882812 C 452.71875 248.875 452.722656 248.867188 452.734375 248.863281 L 452.746094 248.863281 L 452.832031 248.777344 C 454.785156 246.878906 457.347656 245.832031 460.078125 245.832031 C 465.816406 245.832031 470.492188 250.507812 470.492188 256.253906 C 470.492188 262 465.816406 266.679688 460.070312 266.679688 Z M 474.316406 257.53125 L 487.519531 244.316406 L 504.886719 244.316406 L 504.886719 263.070312 C 504.769531 263.066406 504.65625 263.054688 504.539062 263.054688 C 501.9375 263.054688 499.417969 263.984375 497.425781 265.679688 L 474.316406 288.789062 Z M 462.828125 326.1875 C 460.054688 326.1875 457.535156 325.089844 455.667969 323.3125 L 463.023438 315.957031 L 462.640625 315.574219 L 455.285156 322.929688 C 453.511719 321.0625 452.414062 318.539062 452.414062 315.765625 C 452.414062 312.976562 453.5 310.363281 455.464844 308.394531 C 455.476562 308.382812 455.480469 308.375 455.492188 308.371094 L 455.496094 308.371094 L 455.578125 308.289062 C 457.53125 306.390625 460.097656 305.339844 462.828125 305.339844 C 468.570312 305.339844 473.242188 310.019531 473.242188 315.765625 C 473.242188 318.550781 472.15625 321.164062 470.195312 323.136719 C 468.226562 325.101562 465.609375 326.1875 462.828125 326.1875 Z M 512.058594 282.015625 L 512.753906 281.269531 C 514.011719 279.84375 514.855469 278.128906 515.242188 276.296875 L 535.992188 276.296875 L 535.992188 306.054688 L 488.046875 306.054688 Z M 536.535156 305.664062 L 536.535156 276.292969 L 565.878906 276.292969 Z M 566.804688 245.785156 L 596.359375 245.785156 L 566.804688 275.367188 Z M 596.742188 245.242188 L 566.804688 245.242188 L 566.804688 214.277344 L 567.21875 213.863281 L 567.105469 213.75 L 596.742188 184.082031 Z M 596.742188 183.160156 L 567.011719 183.160156 L 567.011719 151.566406 L 596.742188 121.808594 Z M 426.695312 289.652344 L 423.472656 289.652344 L 423.472656 289.113281 L 426.699219 289.113281 L 426.699219 285.886719 L 427.238281 285.886719 L 427.238281 289.113281 L 430.464844 289.113281 L 430.464844 289.652344 L 427.238281 289.652344 L 427.238281 292.882812 L 426.699219 292.882812 Z M 429.992188 348.621094 L 433.21875 348.621094 L 433.21875 349.160156 L 429.992188 349.160156 L 429.992188 352.390625 L 429.453125 352.390625 L 429.453125 349.160156 L 426.230469 349.160156 L 426.230469 348.621094 L 429.453125 348.621094 L 429.453125 345.398438 L 429.992188 345.398438 Z M 429.992188 348.621094 " fill-opacity="1" fill-rule="nonzero"/></g></svg>